<svg xmlns="http://www.w3.org/2000/svg" width="1080" height="1350" viewBox="0 0 1080 1350" role="img">
<title>曼联16脚有10脚来自禁区外</title><desc>两队射门位置、机会质量与关键射门列表</desc>
<rect width="100%" height="100%" fill="#F7F4EC"/>
<style>.zh{font-family:'Microsoft YaHei','Noto Sans CJK SC','PingFang SC',sans-serif;}.num{font-family:'Arial','Roboto Mono',sans-serif;font-variant-numeric:tabular-nums;}</style>
<text x="56" y="54" fill="#627D98" font-weight="700" letter-spacing="2" class="zh" font-size="18">Premier League  ·  2026-09-13  ·  MATCH ANALYSIS</text>
<line x1="56" y1="72" x2="1024" y2="72" stroke="#D9E2EC" stroke-width="2"/>
<text x="56" y="134" font-weight="800" fill="#102A43" class="zh" font-size="42">曼联16脚有10脚来自禁区外</text>
<text x="56" y="178" fill="#627D98" font-weight="600" class="zh" font-size="22">曼城 1  ·  0 曼联</text>
<text x="78" y="232" font-weight="800" fill="#6CABDD" class="zh" font-size="26">曼城</text>
<text x="488" y="232" text-anchor="end" fill="#627D98" class="num" font-size="17">6射门 · 1.1 xG</text>
<rect x="78" y="286" width="410" height="430" fill="#FFFFFF" stroke="#6CABDD" stroke-width="2"/>
<rect x="161.435" y="286" width="243.13" height="135.02" fill="none" stroke="#6CABDD" stroke-width="2"/>
<rect x="227.855" y="286" width="110.29" height="45.15" fill="none" stroke="#6CABDD" stroke-width="2"/>
<circle cx="283.0" cy="376.3" r="4" fill="#6CABDD"/>
<rect x="260.86" y="279" width="44.28" height="7" fill="none" stroke="#6CABDD" stroke-width="2"/>
<line x1="302.4149242532859" y1="445.853924253286" x2="318.27907574671406" y2="461.71807574671413" stroke="#6CABDD" stroke-width="4"/>
<line x1="318.27907574671406" y1="445.853924253286" x2="302.4149242532859" y2="461.71807574671413" stroke="#6CABDD" stroke-width="4"/>
<line x1="284.94324831592957" y1="442.07324831592956" x2="299.4247516840704" y2="456.55475168407037" stroke="#6CABDD" stroke-width="4"/>
<line x1="299.4247516840704" y1="442.07324831592956" x2="284.94324831592957" y2="456.55475168407037" stroke="#6CABDD" stroke-width="4"/>
<circle cx="255.653" cy="305.43600000000004" r="24.626277721963305" fill="none" stroke="#6CABDD" stroke-width="3"/>
<circle cx="255.653" cy="305.43600000000004" r="20.626277721963305" fill="#6CABDD" stroke="#FFFFFF" stroke-width="2"/>
<circle cx="291.733" cy="436.92999999999995" r="13.778174593052023" fill="#6CABDD" fill-opacity="0.82" stroke="#FFFFFF" stroke-width="2"/>
<circle cx="292.635" cy="356.34800000000007" r="20.342245291445828" fill="#FFFFFF" stroke="#6CABDD" stroke-width="3"/>
<line x1="309.91160667766894" y1="494.32460667766895" x2="322.9183933223311" y2="507.3313933223311" stroke="#6CABDD" stroke-width="4"/>
<line x1="322.9183933223311" y1="494.32460667766895" x2="309.91160667766894" y2="507.3313933223311" stroke="#6CABDD" stroke-width="4"/>
<text x="592" y="232" font-weight="800" fill="#DA291C" class="zh" font-size="26">曼联</text>
<text x="1002" y="232" text-anchor="end" fill="#627D98" class="num" font-size="17">16射门 · 1 xG</text>
<rect x="592" y="286" width="410" height="430" fill="#FFFFFF" stroke="#DA291C" stroke-width="2"/>
<rect x="675.435" y="286" width="243.13" height="135.02" fill="none" stroke="#DA291C" stroke-width="2"/>
<rect x="741.855" y="286" width="110.29" height="45.15" fill="none" stroke="#DA291C" stroke-width="2"/>
<circle cx="797.0" cy="376.3" r="4" fill="#DA291C"/>
<rect x="774.86" y="279" width="44.28" height="7" fill="none" stroke="#DA291C" stroke-width="2"/>
<circle cx="865.7570000000001" cy="443.12199999999996" r="9.681304116749931" fill="#DA291C" fill-opacity="0.82" stroke="#FFFFFF" stroke-width="2"/>
<circle cx="703.766" cy="486.982" r="10.4" fill="#FFFFFF" stroke="#DA291C" stroke-width="3"/>
<line x1="849.3410802091132" y1="387.8530802091132" x2="863.5589197908869" y2="402.07091979088676" stroke="#DA291C" stroke-width="4"/>
<line x1="863.5589197908869" y1="387.8530802091132" x2="849.3410802091132" y2="402.07091979088676" stroke="#DA291C" stroke-width="4"/>
<circle cx="693.188" cy="488.874" r="11.608921464952065" fill="#FFFFFF" stroke="#DA291C" stroke-width="3"/>
<circle cx="819.6320000000001" cy="519.318" r="10.288589511715944" fill="#DA291C" fill-opacity="0.82" stroke="#FFFFFF" stroke-width="2"/>
<circle cx="789.169" cy="476.83399999999995" r="9.11126983722081" fill="#FFFFFF" stroke="#DA291C" stroke-width="3"/>
<circle cx="830.415" cy="478.726" r="9.746465000503807" fill="#DA291C" fill-opacity="0.82" stroke="#FFFFFF" stroke-width="2"/>
<line x1="866.0389698312333" y1="324.0839698312332" x2="881.5470301687667" y2="339.5920301687667" stroke="#DA291C" stroke-width="4"/>
<line x1="881.5470301687667" y1="324.0839698312332" x2="866.0389698312333" y2="339.5920301687667" stroke="#DA291C" stroke-width="4"/>
<circle cx="701.224" cy="436.07000000000005" r="9.188102884161676" fill="#FFFFFF" stroke="#DA291C" stroke-width="3"/>
<circle cx="718.526" cy="403.90599999999995" r="10.05659956120887" fill="#FFFFFF" stroke="#DA291C" stroke-width="3"/>
<circle cx="699.953" cy="462.12800000000004" r="9.746465000503807" fill="#DA291C" fill-opacity="0.82" stroke="#FFFFFF" stroke-width="2"/>
<line x1="811.3414773684876" y1="491.8004773684876" x2="827.6765226315124" y2="508.13552263151234" stroke="#DA291C" stroke-width="4"/>
<line x1="827.6765226315124" y1="491.8004773684876" x2="811.3414773684876" y2="508.13552263151234" stroke="#DA291C" stroke-width="4"/>
<circle cx="773.179" cy="355.574" r="11.159457335805772" fill="#FFFFFF" stroke="#DA291C" stroke-width="3"/>
<line x1="812.2682483159297" y1="471.4852483159296" x2="826.7497516840704" y2="485.9667516840704" stroke="#DA291C" stroke-width="4"/>
<line x1="826.7497516840704" y1="471.4852483159296" x2="812.2682483159297" y2="485.9667516840704" stroke="#DA291C" stroke-width="4"/>
<circle cx="814.015" cy="349.984" r="11.252428009977862" fill="#FFFFFF" stroke="#DA291C" stroke-width="3"/>
<circle cx="765.594" cy="379.39599999999996" r="20.121189751575464" fill="#DA291C" fill-opacity="0.82" stroke="#FFFFFF" stroke-width="2"/>
<text x="70" y="790" font-weight="800" fill="#102A43" class="zh" font-size="30">关键机会</text>
<text x="70" y="836" fill="#627D98" font-weight="700" class="zh" font-size="15">时间 / 球员</text>
<text x="500" y="836" fill="#627D98" font-weight="700" class="zh" font-size="15">机会来源</text>
<text x="1002" y="836" text-anchor="end" fill="#627D98" font-weight="700" class="zh" font-size="15">xG</text>
<line x1="70" y1="924" x2="1010" y2="924" stroke="#D9E2EC" stroke-width="1"/>
<circle cx="82" cy="882" r="7" fill="#6CABDD"/>
<text x="100" y="889" fill="#6CABDD" font-weight="800" class="zh" font-size="18">60&#x27;  哈兰德</text>
<text x="500" y="889" fill="#102A43" class="zh" font-size="16">格瓦迪奥尔传中，后点左脚破门</text>
<text x="1002" y="889" text-anchor="end" fill="#6CABDD" font-weight="800" class="num" font-size="18">0.442</text>
<line x1="70" y1="994" x2="1010" y2="994" stroke="#D9E2EC" stroke-width="1"/>
<circle cx="82" cy="952" r="7" fill="#6CABDD"/>
<text x="100" y="959" fill="#6CABDD" font-weight="800" class="zh" font-size="18">76&#x27;  哈兰德</text>
<text x="500" y="959" fill="#102A43" class="zh" font-size="16">禁区内错过扩大比分的机会</text>
<text x="1002" y="959" text-anchor="end" fill="#6CABDD" font-weight="800" class="num" font-size="18">0.425</text>
<line x1="70" y1="1064" x2="1010" y2="1064" stroke="#D9E2EC" stroke-width="1"/>
<circle cx="82" cy="1022" r="7" fill="#DA291C"/>
<text x="100" y="1029" fill="#DA291C" font-weight="800" class="zh" font-size="18">90+5&#x27;  姆贝乌莫</text>
<text x="500" y="1029" fill="#102A43" class="zh" font-size="16">禁区内射门被多纳鲁马扑出</text>
<text x="1002" y="1029" text-anchor="end" fill="#DA291C" font-weight="800" class="num" font-size="18">0.412</text>
<text x="56" y="1208" fill="#627D98" class="zh" font-size="16">● 进球/射正   ○ 偏出   × 被封堵   圆面积代表单次 xG</text>
<text x="56" y="1304" fill="#627D98" class="zh" font-size="15">数据：FotMob · 核对：2026-09-16T09:56:09Z · 图表：蓝月比赛分析</text>
</svg>