<svg xmlns="http://www.w3.org/2000/svg" width="64" height="64" viewBox="0 0 64 64" role="img" aria-labelledby="title">
  <title id="title">木鱼</title>
  <defs>
    <linearGradient id="wood" x1="0" y1="0" x2="1" y2="1">
      <stop offset="0" stop-color="#f1b66c"/>
      <stop offset="0.52" stop-color="#c87932"/>
      <stop offset="1" stop-color="#8d431f"/>
    </linearGradient>
    <linearGradient id="woodDark" x1="0" y1="0" x2="1" y2="1">
      <stop offset="0" stop-color="#b5662f"/>
      <stop offset="1" stop-color="#6f2f1c"/>
    </linearGradient>
  </defs>
  <path d="M47 23 59 16l-2 13 3 12-13-6Z" fill="url(#woodDark)" stroke="#6c301e" stroke-width="1.8" stroke-linejoin="round"/>
  <path d="M8 31c0-11 10-19 24-19 13 0 22 8 22 19S45 50 30 50C16 50 8 42 8 31Z" fill="url(#wood)" stroke="#6c301e" stroke-width="2"/>
  <circle cx="21" cy="25" r="2.2" fill="#fff4dd" stroke="#552514" stroke-width="1.3"/>
  <circle cx="21" cy="25" r=".8" fill="#33170f"/>
  <path d="M14 33c10 2 20 1 29-4-2 8-10 12-21 11" fill="none" stroke="#6c301e" stroke-width="2.2" stroke-linecap="round"/>
  <path d="M27 18c5 2 10 3 16 2M18 44c7 2 15 2 22-1" fill="none" stroke="#f4c27d" stroke-width="1.5" stroke-linecap="round" opacity=".8"/>
  <path d="M22 50h18l3 6H18Z" fill="url(#woodDark)" stroke="#6c301e" stroke-width="1.8" stroke-linejoin="round"/>
  <path d="M14 56h34" stroke="#6c301e" stroke-width="2.8" stroke-linecap="round"/>
  <g transform="rotate(-34 12 16)">
    <rect x="9" y="2" width="5" height="23" rx="2.5" fill="#8a4526" stroke="#5c2818" stroke-width="1.4"/>
    <rect x="6" y="1" width="11" height="7" rx="3.5" fill="#b86c39" stroke="#5c2818" stroke-width="1.4"/>
  </g>
</svg>
